<svg id="Layer_1" data-name="Layer 1" xmlns="http://www.w3.org/2000/svg" viewBox="0 0 100 100"><defs><style>.cls-1{fill:#333;}.cls-2{fill:#1a1a1a;}</style></defs><title>Artboard 4</title><circle class="cls-1" cx="28.25" cy="70.5" r="12"/><path class="cls-2" d="M28.25,60a10.5,10.5,0,1,1-10.5,10.5A10.51,10.51,0,0,1,28.25,60m0-3a13.5,13.5,0,1,0,13.5,13.5A13.49,13.49,0,0,0,28.25,57Z"/><circle class="cls-1" cx="71.75" cy="70.5" r="12"/><path class="cls-2" d="M71.75,60a10.5,10.5,0,1,1-10.5,10.5A10.51,10.51,0,0,1,71.75,60m0-3a13.5,13.5,0,1,0,13.5,13.5A13.49,13.49,0,0,0,71.75,57Z"/><circle class="cls-1" cx="28.25" cy="29.5" r="12"/><path class="cls-2" d="M28.25,19a10.5,10.5,0,1,1-10.5,10.5A10.51,10.51,0,0,1,28.25,19m0-3a13.5,13.5,0,1,0,13.5,13.5A13.49,13.49,0,0,0,28.25,16Z"/><circle class="cls-1" cx="71.75" cy="29.5" r="12"/><path class="cls-2" d="M71.75,19a10.5,10.5,0,1,1-10.5,10.5A10.51,10.51,0,0,1,71.75,19m0-3a13.5,13.5,0,1,0,13.5,13.5A13.49,13.49,0,0,0,71.75,16Z"/></svg>