<svg id="Layer_1" data-name="Layer 1" xmlns="http://www.w3.org/2000/svg" viewBox="0 0 100 100"><defs><style>.cls-1{fill:#333;}.cls-2{fill:#1a1a1a;}</style></defs><title>Artboard 2</title><circle class="cls-1" cx="31.5" cy="68.5" r="12"/><path class="cls-2" d="M31.5,58A10.5,10.5,0,1,1,21,68.5,10.51,10.51,0,0,1,31.5,58m0-3A13.5,13.5,0,1,0,45,68.5,13.49,13.49,0,0,0,31.5,55Z"/><circle class="cls-1" cx="68.5" cy="31.5" r="12"/><path class="cls-2" d="M68.5,21A10.5,10.5,0,1,1,58,31.5,10.51,10.51,0,0,1,68.5,21m0-3A13.5,13.5,0,1,0,82,31.5,13.49,13.49,0,0,0,68.5,18Z"/></svg>