<svg id="Layer_1" data-name="Layer 1" xmlns="http://www.w3.org/2000/svg" viewBox="0 0 100 100"><defs><style>.cls-1{fill:#333;}.cls-2{fill:#1a1a1a;}</style></defs><title>Artboard 5</title><circle class="cls-1" cx="28.25" cy="73" r="12"/><path class="cls-2" d="M28.25,62.5A10.5,10.5,0,1,1,17.75,73a10.51,10.51,0,0,1,10.5-10.5m0-3A13.5,13.5,0,1,0,41.75,73a13.49,13.49,0,0,0-13.5-13.5Z"/><circle class="cls-1" cx="71.75" cy="73" r="12"/><path class="cls-2" d="M71.75,62.5A10.5,10.5,0,1,1,61.25,73a10.51,10.51,0,0,1,10.5-10.5m0-3A13.5,13.5,0,1,0,85.25,73a13.49,13.49,0,0,0-13.5-13.5Z"/><circle class="cls-1" cx="28.25" cy="27" r="12"/><path class="cls-2" d="M28.25,16.5A10.5,10.5,0,1,1,17.75,27a10.51,10.51,0,0,1,10.5-10.5m0-3A13.5,13.5,0,1,0,41.75,27a13.49,13.49,0,0,0-13.5-13.5Z"/><circle class="cls-1" cx="71.75" cy="27" r="12"/><path class="cls-2" d="M71.75,16.5A10.5,10.5,0,1,1,61.25,27a10.51,10.51,0,0,1,10.5-10.5m0-3A13.5,13.5,0,1,0,85.25,27a13.49,13.49,0,0,0-13.5-13.5Z"/><circle class="cls-1" cx="50" cy="50" r="12"/><path class="cls-2" d="M50,39.5A10.5,10.5,0,1,1,39.5,50,10.51,10.51,0,0,1,50,39.5m0-3A13.5,13.5,0,1,0,63.5,50,13.49,13.49,0,0,0,50,36.5Z"/></svg>