<svg id="Layer_1" data-name="Layer 1" xmlns="http://www.w3.org/2000/svg" viewBox="0 0 100 100"><defs><style>.cls-1{fill:#333;}.cls-2{fill:#1a1a1a;}</style></defs><title>Artboard 6</title><circle class="cls-1" cx="18.88" cy="68.5" r="12"/><path class="cls-2" d="M18.88,58A10.5,10.5,0,1,1,8.38,68.5,10.52,10.52,0,0,1,18.88,58m0-3a13.5,13.5,0,1,0,13.5,13.5A13.49,13.49,0,0,0,18.88,55Z"/><circle class="cls-1" cx="50" cy="68.5" r="12"/><path class="cls-2" d="M50,58A10.5,10.5,0,1,1,39.5,68.5,10.51,10.51,0,0,1,50,58m0-3A13.5,13.5,0,1,0,63.5,68.5,13.49,13.49,0,0,0,50,55Z"/><circle class="cls-1" cx="81.13" cy="68.5" r="12"/><path class="cls-2" d="M81.13,58a10.5,10.5,0,1,1-10.5,10.5A10.52,10.52,0,0,1,81.13,58m0-3a13.5,13.5,0,1,0,13.5,13.5A13.49,13.49,0,0,0,81.13,55Z"/><circle class="cls-1" cx="18.88" cy="31.5" r="12"/><path class="cls-2" d="M18.88,21A10.5,10.5,0,1,1,8.38,31.5,10.52,10.52,0,0,1,18.88,21m0-3a13.5,13.5,0,1,0,13.5,13.5A13.49,13.49,0,0,0,18.88,18Z"/><circle class="cls-1" cx="50" cy="31.5" r="12"/><path class="cls-2" d="M50,21A10.5,10.5,0,1,1,39.5,31.5,10.51,10.51,0,0,1,50,21m0-3A13.5,13.5,0,1,0,63.5,31.5,13.49,13.49,0,0,0,50,18Z"/><circle class="cls-1" cx="81.13" cy="31.5" r="12"/><path class="cls-2" d="M81.13,21a10.5,10.5,0,1,1-10.5,10.5A10.52,10.52,0,0,1,81.13,21m0-3a13.5,13.5,0,1,0,13.5,13.5A13.49,13.49,0,0,0,81.13,18Z"/></svg>