<svg id="Layer_1" data-name="Layer 1" xmlns="http://www.w3.org/2000/svg" viewBox="0 0 100 100"><defs><style>.cls-1{fill:#333;}.cls-2{fill:#1a1a1a;}</style></defs><title>Artboard 3</title><circle class="cls-1" cx="24.5" cy="75.5" r="12"/><path class="cls-2" d="M24.5,65A10.5,10.5,0,1,1,14,75.5,10.51,10.51,0,0,1,24.5,65m0-3A13.5,13.5,0,1,0,38,75.5,13.49,13.49,0,0,0,24.5,62Z"/><circle class="cls-1" cx="50" cy="50" r="12"/><path class="cls-2" d="M50,39.5A10.5,10.5,0,1,1,39.5,50,10.51,10.51,0,0,1,50,39.5m0-3A13.5,13.5,0,1,0,63.5,50,13.49,13.49,0,0,0,50,36.5Z"/><circle class="cls-1" cx="75.5" cy="24.5" r="12"/><path class="cls-2" d="M75.5,14A10.5,10.5,0,1,1,65,24.5,10.51,10.51,0,0,1,75.5,14m0-3A13.5,13.5,0,1,0,89,24.5,13.49,13.49,0,0,0,75.5,11Z"/></svg>